<?xml version="1.0" encoding="iso-8859-1"?>
<!-- Generator: Adobe Illustrator 19.1.0, SVG Export Plug-In . SVG Version: 6.00 Build 0)  -->
<svg version="1.1" id="Capa_1" xmlns="http://www.w3.org/2000/svg" xmlns:xlink="http://www.w3.org/1999/xlink" x="0px" y="0px"
	 viewBox="0 0 64.004 64.004" style="enable-background:new 0 0 64.004 64.004;" xml:space="preserve">
<g>
	<g id="group-36svg">
		<path id="path-1_31_" style="fill:#81BDA4;" d="M61.002,12.001c0-4.419-3.582-8.001-8-8.001h-35c-4.419,0-8,3.582-8,8.001v44.003
			c0,4.419,3.581,8,8,8h35c4.418,0,8-3.581,8-8V12.001z"/>
		<path id="path-2_31_" d="M47.502,63.004h-35c-5.238,0-9.5-4.262-9.5-9.5V9.501C3.002,4.262,7.264,0,12.502,0h35
			c5.238,0,9.5,4.262,9.5,9.501v44.003C57.002,58.742,52.74,63.004,47.502,63.004z M12.502,3c-3.584,0-6.5,2.916-6.5,6.501v44.003
			c0,3.584,2.916,6.5,6.5,6.5h35c3.584,0,6.5-2.916,6.5-6.5V9.501c0-3.585-2.916-6.501-6.5-6.501H12.502z"/>
		<path id="path-3_31_" d="M42.502,38.503c-0.829,0-1.5-0.672-1.5-1.501V21.001h-13v15.001c0,0.829-0.671,1.501-1.5,1.501
			s-1.5-0.672-1.5-1.501V19.501c0-0.828,0.671-1.5,1.5-1.5h16c0.829,0,1.5,0.672,1.5,1.5v17.501
			C44.002,37.831,43.331,38.503,42.502,38.503z"/>
		<path id="path-4_31_" style="fill:#FFFFFF;" d="M46.057,38.824c0,2.263-1.834,4.097-4.097,4.097s-4.098-1.834-4.098-4.097
			s1.835-4.098,4.098-4.098S46.057,36.561,46.057,38.824z"/>
		<path id="path-5_30_" style="fill:#FFFFFF;" d="M30.501,38.824c0,2.263-1.834,4.097-4.097,4.097s-4.097-1.834-4.097-4.097
			s1.834-4.098,4.097-4.098S30.501,36.561,30.501,38.824z"/>
		<path id="path-6_26_" d="M38.959,43.422c-3.086,0-5.597-2.511-5.597-5.598c0-3.086,2.511-5.597,5.597-5.597
			c3.087,0,5.598,2.511,5.598,5.597C44.557,40.911,42.046,43.422,38.959,43.422z M38.959,35.227c-1.432,0-2.597,1.165-2.597,2.597
			c0,1.433,1.165,2.598,2.597,2.598c1.433,0,2.598-1.165,2.598-2.598C41.557,36.392,40.392,35.227,38.959,35.227z"/>
		<path id="path-7_15_" d="M23.404,43.422c-3.087,0-5.597-2.511-5.597-5.598c0-3.086,2.51-5.597,5.597-5.597
			c3.086,0,5.598,2.511,5.598,5.597C29.002,40.911,26.49,43.422,23.404,43.422z M23.404,35.227c-1.432,0-2.597,1.165-2.597,2.597
			c0,1.433,1.165,2.598,2.597,2.598c1.432,0,2.597-1.165,2.597-2.598C26.001,36.392,24.836,35.227,23.404,35.227z"/>
	</g>
</g>
<g>
</g>
<g>
</g>
<g>
</g>
<g>
</g>
<g>
</g>
<g>
</g>
<g>
</g>
<g>
</g>
<g>
</g>
<g>
</g>
<g>
</g>
<g>
</g>
<g>
</g>
<g>
</g>
<g>
</g>
</svg>
