<?xml version="1.0" encoding="iso-8859-1"?>
<!-- Generator: Adobe Illustrator 19.1.0, SVG Export Plug-In . SVG Version: 6.00 Build 0)  -->
<svg version="1.1" id="Capa_1" xmlns="http://www.w3.org/2000/svg" xmlns:xlink="http://www.w3.org/1999/xlink" x="0px" y="0px"
	 viewBox="0 0 65.004 65.004" style="enable-background:new 0 0 65.004 65.004;" xml:space="preserve">
<g>
	<g id="group-45svg">
		<path id="path-1_41_" style="fill:#53ECF4;" d="M29.579,5h24.5c2.2,0,4.423,1.475,4.423,3.675v52.004
			c0,2.2-2.223,4.325-4.423,4.325h-37c-2.209,0-3.577-2.116-3.577-4.325V24.745L29.579,5z"/>
		<path id="path-2_41_" style="fill:#99746A;" d="M14.265,23.001h11.314c2.209,0,3.923-1.616,3.923-3.825V4.675L14.265,23.001z"/>
		<path id="path-3_41_" d="M49.079,63.004h-37c-3.127,0-5.577-2.339-5.577-5.326V21.745c0-0.339,0.115-0.668,0.325-0.932
			L22.904,0.567C23.189,0.209,23.622,0,24.079,0h25c2.94,0,5.423,2.598,5.423,5.675v52.003
			C54.502,60.665,52.12,63.004,49.079,63.004z M9.502,22.269v35.409c0,1.304,1.132,2.326,2.577,2.326h37
			c1.404,0,2.423-0.978,2.423-2.326V5.675c0-1.45-1.109-2.675-2.423-2.675H24.803L9.502,22.269z"/>
		<path id="path-4_41_" d="M19.708,22.001H8.932c-0.578,0-1.105-0.332-1.354-0.854c-0.249-0.522-0.176-1.141,0.188-1.59
			l15.07-18.611c0.4-0.492,1.068-0.68,1.667-0.47c0.599,0.212,0.999,0.779,0.999,1.414v14.305
			C25.502,19.233,22.74,22.001,19.708,22.001z M12.077,19.001h7.631c1.357,0,2.794-1.443,2.794-2.806V6.126L12.077,19.001z"/>
		<path id="path-5_39_" d="M28.502,44.003h-16c-0.829,0-1.5-0.672-1.5-1.5c0-0.829,0.671-1.501,1.5-1.501h16
			c0.829,0,1.5,0.672,1.5,1.501C30.002,43.331,29.331,44.003,28.502,44.003z"/>
		<path id="path-6_34_" d="M28.502,37.002h-16c-0.829,0-1.5-0.672-1.5-1.5c0-0.828,0.671-1.5,1.5-1.5h16c0.829,0,1.5,0.672,1.5,1.5
			C30.002,36.33,29.331,37.002,28.502,37.002z"/>
		<path id="path-7_18_" d="M28.502,30.002h-16c-0.829,0-1.5-0.672-1.5-1.5c0-0.829,0.671-1.5,1.5-1.5h16c0.829,0,1.5,0.671,1.5,1.5
			C30.002,29.33,29.331,30.002,28.502,30.002z"/>
	</g>
</g>
<g>
</g>
<g>
</g>
<g>
</g>
<g>
</g>
<g>
</g>
<g>
</g>
<g>
</g>
<g>
</g>
<g>
</g>
<g>
</g>
<g>
</g>
<g>
</g>
<g>
</g>
<g>
</g>
<g>
</g>
</svg>
